<?xml version="1.0" encoding="UTF-8"?>
<!DOCTYPE svg PUBLIC "-//W3C//DTD SVG 1.1//EN" "http://www.w3.org/Graphics/SVG/1.1/DTD/svg11.dtd">
<svg xmlns="http://www.w3.org/2000/svg" version="1.1" width="3691px" height="2077px" style="shape-rendering:geometricPrecision; text-rendering:geometricPrecision; image-rendering:optimizeQuality; fill-rule:evenodd; clip-rule:evenodd" xmlns:xlink="http://www.w3.org/1999/xlink">
<g><path style="opacity:0.98" fill="#fefffe" d="M 3665.5,-0.5 C 3673.83,-0.5 3682.17,-0.5 3690.5,-0.5C 3690.5,0.833333 3690.5,2.16667 3690.5,3.5C 3619.93,24.616 3555.27,57.116 3496.5,101C 3492.53,105.967 3488.2,110.634 3483.5,115C 3486.5,119.167 3490.5,121.834 3495.5,123C 3507.17,123.333 3518.83,123.667 3530.5,124C 3534.75,124.232 3535.42,125.732 3532.5,128.5C 3530.97,129.861 3529.3,131.028 3527.5,132C 3505.25,138.083 3483.58,145.75 3462.5,155C 3457.56,157.606 3452.9,160.606 3448.5,164C 3442.76,170.408 3436.43,176.075 3429.5,181C 3425.41,184.416 3422.08,188.416 3419.5,193C 3421.5,194.333 3423.5,195.667 3425.5,197C 3415.32,201.171 3406.82,207.671 3400,216.5C 3372.67,246.5 3345.33,276.5 3318,306.5C 3275.4,347.439 3231.9,387.273 3187.5,426C 3175,437.833 3162.5,449.667 3150,461.5C 3134.7,482.436 3123.37,505.436 3116,530.5C 3107.78,563.026 3102.45,596.026 3100,629.5C 3097.95,669.69 3095.78,709.857 3093.5,750C 3094.38,758.815 3095.21,767.648 3096,776.5C 3096.88,779.102 3098.38,781.269 3100.5,783C 3113.33,789.271 3126.67,790.937 3140.5,788C 3144.1,787.846 3147.43,786.846 3150.5,785C 3163.46,778.041 3174.63,768.874 3184,757.5C 3194.67,740.167 3205.33,722.833 3216,705.5C 3217.06,706.944 3217.56,708.611 3217.5,710.5C 3216.09,715.063 3215.09,719.73 3214.5,724.5C 3216.75,745.104 3218.09,765.771 3218.5,786.5C 3217.85,820.838 3217.02,855.171 3216,889.5C 3215.53,891.246 3214.86,892.913 3214,894.5C 3209.93,888.087 3206.27,881.421 3203,874.5C 3195.46,864.108 3185.63,857.108 3173.5,853.5C 3150.91,857.27 3132.74,868.27 3119,886.5C 3105.72,904.993 3098.39,925.66 3097,948.5C 3096.08,960.315 3095.58,972.148 3095.5,984C 3096.24,1012.17 3097.07,1040.34 3098,1068.5C 3101.17,1102.55 3104.84,1136.55 3109,1170.5C 3110.55,1198.5 3112.05,1226.5 3113.5,1254.5C 3109.52,1276.16 3111.69,1297.16 3120,1317.5C 3126.94,1329.1 3136.44,1337.94 3148.5,1344C 3190.39,1366.19 3234.56,1382.02 3281,1391.5C 3282.66,1391.61 3283.83,1390.95 3284.5,1389.5C 3278.84,1380.85 3274.84,1371.52 3272.5,1361.5C 3274.99,1361.3 3277.32,1361.8 3279.5,1363C 3302.34,1391.73 3332.01,1402.73 3368.5,1396C 3401.12,1387.36 3431.12,1373.36 3458.5,1354C 3485.86,1332.28 3504.03,1304.45 3513,1270.5C 3523.57,1241.07 3522.57,1212.07 3510,1183.5C 3508.79,1179.73 3509.79,1176.73 3513,1174.5C 3517.62,1176.78 3521.28,1180.12 3524,1184.5C 3529.06,1195.41 3532.89,1206.74 3535.5,1218.5C 3538.43,1217.07 3540.93,1215.07 3543,1212.5C 3561.96,1183.25 3576.62,1151.92 3587,1118.5C 3604.45,1054.37 3621.12,990.038 3637,925.5C 3638,924.167 3639,922.833 3640,921.5C 3641.64,940.076 3641.97,958.743 3641,977.5C 3634.86,1024.78 3628.86,1072.11 3623,1119.5C 3617.59,1158.14 3608.26,1195.81 3595,1232.5C 3586.8,1253.43 3578.8,1274.43 3571,1295.5C 3569.66,1304.12 3569.49,1312.78 3570.5,1321.5C 3568.39,1351.52 3563.89,1381.18 3557,1410.5C 3555.69,1412.98 3553.86,1414.98 3551.5,1416.5C 3550.2,1415.91 3549.37,1414.91 3549,1413.5C 3548.45,1400.63 3548.95,1387.8 3550.5,1375C 3550.3,1364.01 3548.96,1353.18 3546.5,1342.5C 3545.45,1342.35 3544.45,1342.52 3543.5,1343C 3529.07,1354.76 3515.24,1367.26 3502,1380.5C 3498.31,1386.26 3496.31,1392.59 3496,1399.5C 3495.33,1405.5 3495.33,1411.5 3496,1417.5C 3498.09,1425.01 3501.25,1432.01 3505.5,1438.5C 3504.56,1439.97 3503.23,1440.97 3501.5,1441.5C 3498.52,1439.68 3495.68,1437.68 3493,1435.5C 3491.39,1436.1 3490.06,1437.1 3489,1438.5C 3487.75,1442.77 3486.75,1447.1 3486,1451.5C 3486.03,1472.21 3483.37,1492.55 3478,1512.5C 3475.91,1513.79 3474.58,1513.12 3474,1510.5C 3470.82,1495.46 3467.49,1480.46 3464,1465.5C 3461.96,1460.96 3458.96,1459.96 3455,1462.5C 3453.33,1465.17 3451.67,1467.83 3450,1470.5C 3449.29,1472.9 3449.46,1475.23 3450.5,1477.5C 3447.9,1486.13 3445.4,1494.8 3443,1503.5C 3441.62,1516.9 3439.79,1530.23 3437.5,1543.5C 3435.8,1542.64 3434.64,1541.3 3434,1539.5C 3432.12,1530.87 3430.46,1522.21 3429,1513.5C 3421.02,1519.46 3416.68,1527.46 3416,1537.5C 3413.33,1538.83 3411.33,1540.83 3410,1543.5C 3401,1566.51 3388.67,1587.51 3373,1606.5C 3366.37,1612.97 3359.37,1618.97 3352,1624.5C 3349.08,1630.02 3346.41,1635.68 3344,1641.5C 3343.33,1642.83 3342.67,1642.83 3342,1641.5C 3340.49,1636.97 3338.32,1632.8 3335.5,1629C 3332.5,1628.24 3330,1629.08 3328,1631.5C 3305.94,1681.63 3282.27,1730.96 3257,1779.5C 3244.25,1801.33 3231.25,1823 3218,1844.5C 3211.05,1854.45 3203.72,1864.12 3196,1873.5C 3183.47,1885.7 3171.3,1898.2 3159.5,1911C 3099.81,1971.62 3029.81,2016.62 2949.5,2046C 2925.91,2054.86 2902.24,2063.53 2878.5,2072C 2875.76,2073.03 2873.43,2074.53 2871.5,2076.5C 2869.17,2076.5 2866.83,2076.5 2864.5,2076.5C 2864.87,2072.96 2866.87,2070.79 2870.5,2070C 2937.09,2049.04 2999.09,2019.04 3056.5,1980C 3067.44,1970.06 3077.28,1959.23 3086,1947.5C 3131.37,1887.48 3170.7,1823.48 3204,1755.5C 3217.25,1723.75 3228.92,1691.42 3239,1658.5C 3246.44,1628.11 3250.6,1597.28 3251.5,1566C 3249.88,1541.41 3247.38,1516.91 3244,1492.5C 3241.56,1483.79 3236.06,1477.96 3227.5,1475C 3218.73,1472.64 3210.06,1469.97 3201.5,1467C 3196.21,1464.05 3191.88,1460.05 3188.5,1455C 3178.29,1449.45 3168.63,1443.12 3159.5,1436C 3153.26,1433.32 3146.93,1432.15 3140.5,1432.5C 3147.69,1444.55 3153.52,1457.21 3158,1470.5C 3158.67,1480.17 3158.67,1489.83 3158,1499.5C 3157.64,1501.61 3156.97,1503.61 3156,1505.5C 3154.86,1495.08 3151.53,1485.42 3146,1476.5C 3136.82,1462.33 3126.32,1449.16 3114.5,1437C 3097.76,1422.63 3078.43,1413.63 3056.5,1410C 3052.37,1409.15 3048.37,1409.48 3044.5,1411C 3041.14,1417.39 3036.8,1423.05 3031.5,1428C 3025.92,1431.31 3019.92,1433.64 3013.5,1435C 3009.24,1436.93 3005.24,1439.27 3001.5,1442C 2980.66,1458.83 2963.49,1478.66 2950,1501.5C 2944.53,1507.46 2941.2,1506.8 2940,1499.5C 2941.67,1497.83 2943.33,1496.17 2945,1494.5C 2961.29,1459.56 2979.29,1425.56 2999,1392.5C 3002.11,1387.16 3004.45,1381.49 3006,1375.5C 3012.32,1338.27 3017.98,1300.94 3023,1263.5C 3024.53,1234.18 3024.86,1204.85 3024,1175.5C 3020.68,1108.96 3015.01,1042.63 3007,976.5C 3006.16,950.401 3004.16,924.401 3001,898.5C 2994.8,873.661 2980.97,854.494 2959.5,841C 2949.21,834.844 2938.21,833.01 2926.5,835.5C 2926.26,831.422 2928.26,829.256 2932.5,829C 2948.17,826.278 2963.5,827.612 2978.5,833C 2986.09,835.642 2993.59,838.475 3001,841.5C 3001.54,837.338 3002.04,833.172 3002.5,829C 3001.62,795.677 3000.95,762.344 3000.5,729C 3001.69,690.47 3003.19,651.97 3005,613.5C 3004.27,605.974 3001.94,598.974 2998,592.5C 2986.07,580.236 2976.07,566.57 2968,551.5C 2963.43,541.284 2960.59,530.617 2959.5,519.5C 2958.63,515.04 2960.13,511.707 2964,509.5C 2964.33,509.833 2964.67,510.167 2965,510.5C 2970.85,532.368 2981.02,551.868 2995.5,569C 2997.62,570.122 2999.46,571.622 3001,573.5C 3004.62,540.647 3006.78,507.647 3007.5,474.5C 3006.14,422.838 3004.97,371.172 3004,319.5C 3002.69,303.35 3000.36,287.35 2997,271.5C 2991.99,254.299 2986.49,237.299 2980.5,220.5C 2984.03,220.346 2986.86,221.679 2989,224.5C 2999.66,242.82 3011.49,260.32 3024.5,277C 3026.37,277.711 3027.87,277.211 3029,275.5C 3029.86,269.171 3030.69,262.838 3031.5,256.5C 3034.52,258.688 3037.02,261.355 3039,264.5C 3043.67,272.512 3048.84,280.179 3054.5,287.5C 3056.48,286.018 3058.32,284.351 3060,282.5C 3070.07,264.162 3075.07,244.495 3075,223.5C 3077.1,182.619 3073.44,142.286 3064,102.5C 3062.89,97.6086 3060.72,93.2753 3057.5,89.5C 3060.81,85.0921 3064.31,84.7587 3068,88.5C 3083.68,119.538 3097.01,151.538 3108,184.5C 3115.51,208.059 3117.51,232.059 3114,256.5C 3116.13,256.927 3118.29,256.427 3120.5,255C 3132.13,243.875 3143.13,232.375 3153.5,220.5C 3154.79,226.206 3154.63,231.873 3153,237.5C 3150.22,245.18 3147.05,252.68 3143.5,260C 3145.83,260.667 3148.17,260.667 3150.5,260C 3161.43,255.062 3170.6,247.895 3178,238.5C 3197.5,209.663 3208,177.83 3209.5,143C 3210.01,126.229 3207.18,110.062 3201,94.5C 3198.38,90.2171 3195.38,86.2171 3192,82.5C 3191.82,80.5116 3191.99,78.5116 3192.5,76.5C 3194.53,76.3379 3196.53,76.5045 3198.5,77C 3212.47,89.101 3222.3,103.934 3228,121.5C 3229.52,127.075 3230.52,132.742 3231,138.5C 3231.21,162.857 3231.71,187.19 3232.5,211.5C 3234.56,211.313 3236.56,210.813 3238.5,210C 3258.67,196.076 3279.67,183.41 3301.5,172C 3314.21,163.623 3325.38,153.456 3335,141.5C 3342.82,128.701 3349.98,115.535 3356.5,102C 3357.74,101.544 3358.58,102.044 3359,103.5C 3359.5,106.5 3360,109.5 3360.5,112.5C 3358.86,121.454 3358.03,130.454 3358,139.5C 3360.84,140.675 3363.67,140.509 3366.5,139C 3382.79,130.046 3396.62,118.212 3408,103.5C 3418.59,89.3396 3427.92,74.3396 3436,58.5C 3438.04,57.5769 3440.21,57.2436 3442.5,57.5C 3442.06,68.7238 3441.06,79.8904 3439.5,91C 3439.83,91.5 3440.17,92 3440.5,92.5C 3467.81,76.5073 3495.48,61.0073 3523.5,46C 3567.2,27.6547 3612.2,13.3214 3658.5,3C 3660.93,1.78739 3663.26,0.620727 3665.5,-0.5 Z"/></g>
<g><path style="opacity:0.981" fill="#fefffe" d="M -0.5,15.5 C 61.1696,23.7766 120.17,41.2766 176.5,68C 199.995,80.9112 222.995,94.5778 245.5,109C 247.259,109.798 248.926,109.631 250.5,108.5C 248.247,96.8966 247.247,85.23 247.5,73.5C 248.768,72.5721 250.101,72.4054 251.5,73C 261.366,92.5158 273.199,110.682 287,127.5C 298.543,139.758 311.543,150.092 326,158.5C 327.555,153.618 327.888,148.618 327,143.5C 324.958,134.248 323.458,124.914 322.5,115.5C 323.304,112.56 324.637,109.893 326.5,107.5C 334.157,128.488 344.657,147.821 358,165.5C 366.565,174.735 375.732,183.235 385.5,191C 404.674,203.753 423.674,216.753 442.5,230C 448.247,233.063 452.08,231.563 454,225.5C 454.111,204.473 454.778,183.473 456,162.5C 459.891,129.528 475.391,103.695 502.5,85C 505.88,84.0623 508.88,84.729 511.5,87C 506.55,92.6201 502.384,98.7868 499,105.5C 494.99,117.514 490.99,129.514 487,141.5C 486.132,157.092 487.798,172.425 492,187.5C 495.928,202.618 500.261,217.618 505,232.5C 510.755,248.911 520.921,261.745 535.5,271C 541.266,273.441 547.266,274.941 553.5,275.5C 552.703,259.339 553.87,243.339 557,227.5C 567.721,183.001 583.388,140.334 604,99.5C 606.719,98.5562 609.552,98.2229 612.5,98.5C 612.664,101.187 612.497,103.854 612,106.5C 607.939,115.077 605.272,124.077 604,133.5C 598.904,169.97 596.571,206.637 597,243.5C 597.682,259.936 602.015,275.27 610,289.5C 612.048,291.787 614.215,291.954 616.5,290C 619.699,286.434 622.533,282.6 625,278.5C 628.706,274.289 631.706,274.623 634,279.5C 634.076,283.819 633.909,288.152 633.5,292.5C 636.425,292.54 639.091,291.707 641.5,290C 655.662,276.514 668.328,261.847 679.5,246C 683.925,243.269 686.591,244.435 687.5,249.5C 668.784,290.265 650.617,331.265 633,372.5C 627.868,388.087 624.868,404.087 624,420.5C 622.232,437.807 621.232,455.141 621,472.5C 622.059,475.618 623.392,478.618 625,481.5C 633.833,495 642.667,508.5 651.5,522C 650.892,522.87 650.059,523.37 649,523.5C 637.482,520.158 626.982,514.824 617.5,507.5C 616.194,508.912 615.36,510.579 615,512.5C 613.153,538.845 611.153,565.178 609,591.5C 608.171,622.514 608.505,653.514 610,684.5C 613.021,715.73 616.521,746.896 620.5,778C 618.421,800.483 618.087,822.983 619.5,845.5C 619.833,846.167 620.167,846.833 620.5,847.5C 622.472,846.695 623.972,845.361 625,843.5C 633.715,824.398 643.715,806.065 655,788.5C 658.272,783.273 662.772,781.606 668.5,783.5C 669.553,784.438 670.22,785.605 670.5,787C 651.434,826.529 636.934,867.696 627,910.5C 621.283,936.084 615.95,961.75 611,987.5C 605.56,1051.75 601.56,1116.09 599,1180.5C 598.472,1184.94 597.472,1189.28 596,1193.5C 593.785,1249.66 591.951,1305.82 590.5,1362C 590.581,1395.24 596.415,1427.41 608,1458.5C 612.063,1466.96 616.397,1475.29 621,1483.5C 634.827,1502.49 648.16,1521.82 661,1541.5C 664.765,1547.46 667.765,1553.79 670,1560.5C 675.922,1565.4 674.755,1567.23 666.5,1566C 651.265,1547.76 634.931,1530.43 617.5,1514C 606.167,1506.33 594.833,1498.67 583.5,1491C 564.459,1469.63 545.793,1447.96 527.5,1426C 521.46,1421.82 514.794,1420.49 507.5,1422C 468.308,1440.53 440.808,1470.03 425,1510.5C 417.961,1529.03 414.794,1548.19 415.5,1568C 415.41,1603.29 420.576,1637.79 431,1671.5C 447.019,1723.92 469.019,1773.59 497,1820.5C 525.108,1869.74 556.442,1916.74 591,1961.5C 605.864,1978.7 623.364,1992.53 643.5,2003C 694.281,2030.14 746.781,2053.31 801,2072.5C 801.49,2073.79 801.657,2075.13 801.5,2076.5C 799.5,2076.5 797.5,2076.5 795.5,2076.5C 792.01,2073.58 788.01,2071.42 783.5,2070C 734.131,2053.66 686.131,2033.99 639.5,2011C 606.914,1993.55 576.58,1972.88 548.5,1949C 523.697,1925.86 499.197,1902.36 475,1878.5C 457.287,1857.12 439.953,1835.46 423,1813.5C 392.064,1767.96 367.731,1718.96 350,1666.5C 336.938,1639.38 323.605,1612.38 310,1585.5C 304.916,1577 299.583,1568.66 294,1560.5C 271.322,1531.81 247.156,1504.31 221.5,1478C 199.129,1459.81 177.129,1441.14 155.5,1422C 135.376,1404.55 119.876,1383.72 109,1359.5C 101.117,1337.18 92.4504,1315.18 83,1293.5C 66.7722,1250.26 54.4389,1205.92 46,1160.5C 39.9072,1109.42 33.2405,1058.42 26,1007.5C 24.5132,985.52 24.1799,963.52 25,941.5C 26.1545,940.257 27.4878,939.257 29,938.5C 36.9725,967.096 44.9725,995.763 53,1024.5C 61.8849,1050.04 69.2182,1076.04 75,1102.5C 84.1105,1131.28 92.4438,1160.28 100,1189.5C 109.545,1219.66 124.878,1246.33 146,1269.5C 159.559,1282.72 172.559,1296.05 185,1309.5C 170.632,1306.07 156.798,1301.07 143.5,1294.5C 140.379,1297.39 139.879,1300.72 142,1304.5C 154.483,1326.64 168.15,1347.97 183,1368.5C 202.276,1391.22 226.109,1407.05 254.5,1416C 335.931,1443.07 403.764,1423.57 458,1357.5C 473.118,1337.84 483.452,1315.84 489,1291.5C 494.289,1269.01 498.622,1246.34 502,1223.5C 503.585,1189.85 503.918,1156.19 503,1122.5C 502.529,1108.59 500.529,1094.92 497,1081.5C 494.584,1077 491.917,1072.67 489,1068.5C 477.442,1055.28 466.276,1041.78 455.5,1028C 455.667,1027.5 455.833,1027 456,1026.5C 460.406,1030.29 465.239,1033.46 470.5,1036C 484.549,1038.56 493.715,1033.06 498,1019.5C 500.896,1007.92 501.229,996.249 499,984.5C 492.311,959.053 486.644,933.386 482,907.5C 476.252,891.334 468.418,876.334 458.5,862.5C 460.968,858.149 463.968,857.649 467.5,861C 477.587,870.424 488.253,879.091 499.5,887C 503.546,887.324 506.379,885.491 508,881.5C 509.321,871.217 510.154,860.884 510.5,850.5C 509.403,812.83 508.236,775.163 507,737.5C 505.993,680.463 494.993,625.463 474,572.5C 464.753,550.916 451.253,532.416 433.5,517C 418.148,502.99 401.148,491.324 382.5,482C 380.256,480.578 378.59,478.744 377.5,476.5C 378.852,472.746 381.518,471.579 385.5,473C 397.625,477.597 409.959,481.597 422.5,485C 435.403,490.118 448.07,495.784 460.5,502C 467.737,504.969 475.071,507.303 482.5,509C 466.1,486.707 452.933,462.54 443,436.5C 402.801,360.723 356.134,289.39 303,222.5C 279.564,196.395 255.398,170.895 230.5,146C 220.35,137.427 210.016,129.093 199.5,121C 160.312,95.8986 119.978,72.5653 78.5,51C 63.0088,45.392 47.6755,39.392 32.5,33C 21.7416,28.9129 10.7416,25.7462 -0.5,23.5C -0.5,20.8333 -0.5,18.1667 -0.5,15.5 Z"/></g>
<g><path style="opacity:0.979" fill="#fefffe" d="M 2925.5,74.5 C 2927.34,75.1223 2928.5,76.4556 2929,78.5C 2930.6,102.171 2932.27,125.838 2934,149.5C 2934.72,173.181 2934.39,196.847 2933,220.5C 2928.3,264.739 2921.97,308.739 2914,352.5C 2904.4,385.953 2894.4,419.286 2884,452.5C 2862.36,539.935 2854.36,628.602 2860,718.5C 2860.94,731.504 2861.94,744.504 2863,757.5C 2873.38,835.251 2881.38,913.251 2887,991.5C 2887.52,994.92 2888.35,998.253 2889.5,1001.5C 2896.66,994.177 2903.66,986.677 2910.5,979C 2911.45,978.517 2912.45,978.351 2913.5,978.5C 2906.69,997.468 2899.85,1016.47 2893,1035.5C 2892.04,1038.93 2891.54,1042.43 2891.5,1046C 2894.33,1079.17 2897.17,1112.33 2900,1145.5C 2903.64,1162.34 2906.31,1179.34 2908,1196.5C 2908.11,1238.39 2911.11,1280.06 2917,1321.5C 2917.67,1329.5 2917.67,1337.5 2917,1345.5C 2912.49,1364.54 2907.82,1383.54 2903,1402.5C 2890.71,1439.05 2877.04,1475.05 2862,1510.5C 2844.51,1543.49 2826.51,1576.15 2808,1608.5C 2805.56,1613.93 2801.39,1615.93 2795.5,1614.5C 2795.34,1611.48 2795.5,1608.48 2796,1605.5C 2802.29,1594.29 2807.63,1582.62 2812,1570.5C 2821.98,1546.22 2830.98,1521.55 2839,1496.5C 2846.4,1456.16 2854.07,1415.83 2862,1375.5C 2862.97,1366.01 2863.8,1356.51 2864.5,1347C 2862.58,1317.52 2861.08,1288.02 2860,1258.5C 2857.22,1228.53 2854.89,1198.53 2853,1168.5C 2850.15,1141.43 2845.15,1114.76 2838,1088.5C 2823.04,1031.67 2806.37,975.332 2788,919.5C 2782.11,903.836 2775.44,888.503 2768,873.5C 2752.08,845.328 2736.41,816.994 2721,788.5C 2715.33,774.5 2709.67,760.5 2704,746.5C 2702.82,739.229 2702.15,731.896 2702,724.5C 2699.84,717.886 2695.34,715.719 2688.5,718C 2686.33,718.833 2684.83,720.333 2684,722.5C 2678.38,744.537 2674.38,766.87 2672,789.5C 2672.94,834.18 2674.61,878.846 2677,923.5C 2679.43,953.301 2681.26,983.134 2682.5,1013C 2680.67,1081.09 2675.51,1148.92 2667,1216.5C 2663.58,1238.86 2658.58,1260.86 2652,1282.5C 2643.45,1302.94 2635.45,1323.61 2628,1344.5C 2610.69,1381.81 2589.36,1416.48 2564,1448.5C 2558.97,1453.87 2553.63,1458.87 2548,1463.5C 2543.83,1468.33 2539.67,1473.17 2535.5,1478C 2531.19,1479.54 2528.53,1478.21 2527.5,1474C 2557.27,1427.06 2579.1,1376.56 2593,1322.5C 2595.28,1317.61 2597.28,1312.61 2599,1307.5C 2605.03,1287.75 2610.03,1267.75 2614,1247.5C 2618.17,1215.28 2620.5,1182.95 2621,1150.5C 2619.53,1144.43 2617.87,1138.43 2616,1132.5C 2616.38,1066.98 2613.04,1001.64 2606,936.5C 2600.63,850.527 2600.13,764.527 2604.5,678.5C 2602.53,650.437 2595.37,623.77 2583,598.5C 2571.33,574.476 2557.16,552.143 2540.5,531.5C 2541.33,530.585 2542.33,529.919 2543.5,529.5C 2554.4,536.563 2563.9,545.23 2572,555.5C 2580.09,567.343 2588.42,579.009 2597,590.5C 2597.91,589.672 2598.58,588.672 2599,587.5C 2599.67,572.167 2599.67,556.833 2599,541.5C 2594.81,513.927 2591.48,486.26 2589,458.5C 2580.93,426.238 2571.93,394.238 2562,362.5C 2552.95,328.271 2552.28,293.937 2560,259.5C 2561.02,258.313 2562.19,257.313 2563.5,256.5C 2565.72,271.072 2566.89,285.738 2567,300.5C 2572.21,326.484 2581.55,350.817 2595,373.5C 2610.15,395.663 2630.98,409.163 2657.5,414C 2659,415.5 2660.5,417 2662,418.5C 2673.05,403.902 2673.22,389.235 2662.5,374.5C 2663.71,371.921 2665.04,369.421 2666.5,367C 2668.44,366.257 2670.27,366.424 2672,367.5C 2684.22,394.513 2689.22,422.847 2687,452.5C 2689.17,468.341 2694.5,483.008 2703,496.5C 2706.5,500.827 2709.5,505.494 2712,510.5C 2713.58,511.861 2715.42,512.528 2717.5,512.5C 2719.05,495.523 2722.22,478.856 2727,462.5C 2729.54,458.487 2733.04,457.487 2737.5,459.5C 2736.18,466.266 2735.18,473.099 2734.5,480C 2735.04,487.532 2735.87,495.032 2737,502.5C 2741.46,519.553 2746.13,536.553 2751,553.5C 2751.75,555.332 2752.75,556.999 2754,558.5C 2756.04,549.356 2758.54,540.356 2761.5,531.5C 2764.2,532.698 2766.03,534.698 2767,537.5C 2769.36,563.808 2771.36,590.141 2773,616.5C 2776.33,635.167 2779.67,653.833 2783,672.5C 2784,674.833 2785.67,676.5 2788,677.5C 2789.3,654.817 2790.8,632.151 2792.5,609.5C 2794.41,608.627 2796.25,607.627 2798,606.5C 2799.95,602.401 2801.11,598.068 2801.5,593.5C 2800.68,564.857 2800.18,536.19 2800,507.5C 2797.81,478.413 2794.81,449.413 2791,420.5C 2787.51,406.88 2784.18,393.213 2781,379.5C 2779.73,376.567 2778.06,373.901 2776,371.5C 2775.5,368.854 2775.34,366.187 2775.5,363.5C 2778.52,363.335 2781.52,363.502 2784.5,364C 2795.56,380.075 2805.4,396.908 2814,414.5C 2815.09,416.349 2816.43,418.016 2818,419.5C 2822.32,409.526 2825.66,399.193 2828,388.5C 2828.4,366.807 2827.74,345.14 2826,323.5C 2823.21,312.115 2820.21,300.782 2817,289.5C 2816.66,284.453 2816,279.453 2815,274.5C 2813.65,272.981 2812.15,271.648 2810.5,270.5C 2809.35,268.235 2809.19,265.902 2810,263.5C 2812.24,261.006 2814.58,261.006 2817,263.5C 2822.75,273.334 2828.75,283.001 2835,292.5C 2841.89,300.122 2849.73,301.288 2858.5,296C 2862.59,292.296 2866.09,288.129 2869,283.5C 2877.91,266.018 2886.57,248.352 2895,230.5C 2904,205.17 2910.33,179.17 2914,152.5C 2917.47,129.594 2920.14,106.594 2922,83.5C 2923.18,80.4788 2924.35,77.4788 2925.5,74.5 Z"/></g>
<g><path style="opacity:0.982" fill="#fefffe" d="M 721.5,159.5 C 724.952,159.448 727.119,161.115 728,164.5C 730.946,199.577 734.613,234.577 739,269.5C 741.593,284.874 745.593,299.874 751,314.5C 767.808,355.252 791.641,391.085 822.5,422C 824.997,423.983 826.164,423.15 826,419.5C 826.251,408.472 826.918,397.472 828,386.5C 828.376,383.99 829.21,381.657 830.5,379.5C 832.253,382.005 833.753,384.671 835,387.5C 838.326,405.979 845.826,422.479 857.5,437C 858.167,437.667 858.833,437.667 859.5,437C 876.827,418.518 891.327,398.018 903,375.5C 906.378,368.904 908.378,361.904 909,354.5C 909.465,353.069 910.299,351.903 911.5,351C 914.167,350.333 916.833,350.333 919.5,351C 920.081,351.893 920.415,352.893 920.5,354C 919.22,356.734 918.054,359.567 917,362.5C 915.654,376.921 913.654,391.255 911,405.5C 910.333,412.167 910.333,418.833 911,425.5C 911.266,428.713 912.932,430.713 916,431.5C 944.364,421.141 966.03,402.807 981,376.5C 983.667,373.833 986.333,371.167 989,368.5C 976.158,413.036 966.491,458.37 960,504.5C 959.816,543.931 961.816,583.264 966,622.5C 970.349,655.929 975.349,689.262 981,722.5C 981.557,726.175 982.89,729.508 985,732.5C 990.417,723.331 996.083,714.331 1002,705.5C 1004.26,703.954 1006.42,702.288 1008.5,700.5C 1008.83,701.333 1009.17,702.167 1009.5,703C 1004.81,712.387 1001.31,722.22 999,732.5C 995.851,747.723 993.684,763.057 992.5,778.5C 1001.39,840.447 1013.56,901.781 1029,962.5C 1033.6,975.694 1040.26,987.694 1049,998.5C 1063.72,1014.05 1077.89,1030.05 1091.5,1046.5C 1086.4,1047.52 1081.4,1047.02 1076.5,1045C 1066.24,1039.62 1056.07,1034.12 1046,1028.5C 1045.5,1028.67 1045,1028.83 1044.5,1029C 1060.97,1099.38 1078.47,1169.54 1097,1239.5C 1105,1262.17 1113,1284.83 1121,1307.5C 1130.36,1342.92 1140.02,1378.25 1150,1413.5C 1153.87,1427.12 1158.54,1440.46 1164,1453.5C 1170.26,1465.03 1176.76,1476.36 1183.5,1487.5C 1182.28,1490.09 1180.28,1490.92 1177.5,1490C 1162.59,1474.43 1148.42,1458.26 1135,1441.5C 1121.7,1421.56 1111.03,1400.23 1103,1377.5C 1089,1339.5 1075,1301.5 1061,1263.5C 1052.66,1236.82 1044.33,1210.16 1036,1183.5C 1034.13,1182.91 1032.46,1183.58 1031,1185.5C 1026.68,1201.99 1018.84,1216.49 1007.5,1229C 1005.91,1230.54 1004.58,1230.54 1003.5,1229C 1002.43,1224.88 1002.26,1220.71 1003,1216.5C 1008.67,1195.17 1014.33,1173.83 1020,1152.5C 1020.86,1144.44 1020.53,1136.44 1019,1128.5C 1015.39,1117.68 1011.39,1107.01 1007,1096.5C 1003.46,1091.98 998.964,1088.81 993.5,1087C 986.167,1084.67 978.833,1082.33 971.5,1080C 965.514,1080.24 959.514,1080.24 953.5,1080C 943.437,1078.32 933.437,1076.32 923.5,1074C 896.519,1072.47 869.519,1072.14 842.5,1073C 826.781,1074.35 811.781,1078.35 797.5,1085C 776.634,1100.87 761.467,1121.03 752,1145.5C 743.07,1169.96 734.737,1194.62 727,1219.5C 724.674,1250.89 725.341,1282.22 729,1313.5C 733.151,1340.62 741.317,1366.45 753.5,1391C 751.909,1393.8 749.909,1394.13 747.5,1392C 742.169,1387 738.003,1381.17 735,1374.5C 727.664,1354.16 721.331,1333.49 716,1312.5C 715.35,1309.03 713.85,1306.03 711.5,1303.5C 710.808,1304.03 710.308,1304.69 710,1305.5C 707.927,1326.49 705.927,1347.49 704,1368.5C 704.529,1434.12 709.196,1499.45 718,1564.5C 723.273,1600.26 732.606,1634.92 746,1668.5C 749.538,1683.4 752.538,1698.4 755,1713.5C 758.186,1717.3 759.186,1721.63 758,1726.5C 755.368,1729.19 753.034,1728.86 751,1725.5C 726.991,1674.14 707.324,1621.14 692,1566.5C 686.617,1544.59 681.617,1522.59 677,1500.5C 673.088,1454.88 670.088,1409.21 668,1363.5C 667.333,1343.17 667.333,1322.83 668,1302.5C 670.82,1265.86 673.154,1229.2 675,1192.5C 680.196,1152.7 684.696,1112.86 688.5,1073C 687.5,1072.33 686.5,1072.33 685.5,1073C 679.282,1075.94 672.949,1078.61 666.5,1081C 663.167,1081.67 659.833,1081.67 656.5,1081C 654.158,1078.58 654.491,1076.25 657.5,1074C 675.06,1067.65 687.227,1055.82 694,1038.5C 697.846,1021.94 701.179,1005.27 704,988.5C 713.707,923.217 723.04,857.883 732,792.5C 735.789,757.143 731.455,722.809 719,689.5C 711.876,674.921 705.042,660.254 698.5,645.5C 702.179,645.751 705.513,646.918 708.5,649C 723.895,662.268 734.395,678.768 740,698.5C 742.022,699.991 743.688,699.658 745,697.5C 754.554,634.904 754.887,572.237 746,509.5C 738.334,465.176 730.668,420.843 723,376.5C 712.933,304.195 712.433,231.861 721.5,159.5 Z M 860.5,688.5 C 862.984,690.12 864.484,692.453 865,695.5C 866.758,720.29 872.091,744.29 881,767.5C 891.641,795.083 903.641,822.083 917,848.5C 934.608,890.037 935.775,932.037 920.5,974.5C 918.556,975.189 916.556,975.689 914.5,976C 899.867,977.518 885.2,977.851 870.5,977C 853.139,975.316 835.806,973.483 818.5,971.5C 815.109,965.16 812.609,958.493 811,951.5C 807.769,922.169 807.769,892.835 811,863.5C 817.337,842.157 824.67,821.157 833,800.5C 842.091,765.136 849.758,729.469 856,693.5C 857.025,691.313 858.525,689.646 860.5,688.5 Z"/></g>
<g><path style="opacity:0.454" fill="#fefffe" d="M 3430.5,191.5 C 3433.03,192.048 3435.36,193.048 3437.5,194.5C 3435.58,195.641 3433.58,195.808 3431.5,195C 3430.66,193.989 3430.33,192.822 3430.5,191.5 Z"/></g>
<g><path style="opacity:0.982" fill="#fefffe" d="M 2047.5,227.5 C 2051.49,226.616 2054.32,227.949 2056,231.5C 2063.45,244.062 2070.11,257.062 2076,270.5C 2091.75,326.314 2091.08,381.98 2074,437.5C 2070.2,453.097 2064.2,467.764 2056,481.5C 2030.68,521.491 1998.51,554.991 1959.5,582C 1935.38,599.45 1910.71,616.116 1885.5,632C 1869.81,643.73 1863.48,659.397 1866.5,679C 1867.12,704.497 1867.62,729.997 1868,755.5C 1869.35,763.522 1872.35,770.855 1877,777.5C 1894.18,766.164 1913.01,759.164 1933.5,756.5C 1932.54,761.256 1930.87,765.756 1928.5,770C 1950.08,766.273 1971.41,761.273 1992.5,755C 1996.5,754.333 2000.5,754.333 2004.5,755C 2014.61,759.395 2024.78,759.562 2035,755.5C 2035.83,755.833 2036.67,756.167 2037.5,756.5C 2025.69,765.141 2014.02,773.975 2002.5,783C 1980.96,802.207 1959.13,821.041 1937,839.5C 1936.31,840.332 1936.48,840.998 1937.5,841.5C 1941.5,843.833 1945.5,846.167 1949.5,848.5C 1950.73,849.651 1950.73,850.817 1949.5,852C 1912.96,854.666 1887.79,872.832 1874,906.5C 1869.95,919.412 1869.62,932.412 1873,945.5C 1873.67,953.167 1873.67,960.833 1873,968.5C 1870.99,980.56 1868.65,992.56 1866,1004.5C 1864.93,1013.8 1864.27,1023.14 1864,1032.5C 1858.77,1061.3 1855.11,1090.3 1853,1119.5C 1851.51,1168.17 1849.84,1216.84 1848,1265.5C 1847.33,1307.5 1847.33,1349.5 1848,1391.5C 1852.08,1419 1854.08,1446.67 1854,1474.5C 1855.41,1499.64 1858.08,1524.64 1862,1549.5C 1863.98,1553.96 1865.81,1558.46 1867.5,1563C 1863.79,1563.83 1860.12,1563.66 1856.5,1562.5C 1840.66,1528.8 1828.49,1493.8 1820,1457.5C 1815.92,1451.34 1812.92,1444.67 1811,1437.5C 1803.08,1397.9 1795.41,1358.23 1788,1318.5C 1780.5,1246.35 1771.84,1174.35 1762,1102.5C 1760.27,1064.59 1757.43,1026.76 1753.5,989C 1754.48,975.746 1753.64,962.579 1751,949.5C 1738.97,904.434 1725.97,859.767 1712,815.5C 1716.05,817.887 1719.05,821.22 1721,825.5C 1729.06,843.288 1737.39,860.954 1746,878.5C 1747.17,880.616 1748.67,881.282 1750.5,880.5C 1751.25,877.223 1751.75,873.89 1752,870.5C 1754.34,813.41 1758,756.41 1763,699.5C 1763.71,664.455 1764.71,629.455 1766,594.5C 1763.99,582.467 1759.99,571.134 1754,560.5C 1742.7,542.366 1731.2,524.366 1719.5,506.5C 1721.04,504.554 1723.04,504.054 1725.5,505C 1737.37,517.2 1748.87,529.7 1760,542.5C 1760.42,540.645 1760.92,538.811 1761.5,537C 1759.51,524.141 1757.35,511.308 1755,498.5C 1747.46,477.866 1741.12,456.866 1736,435.5C 1732.78,417.294 1731.78,398.96 1733,380.5C 1735.35,365.043 1738.35,349.71 1742,334.5C 1745.27,326.362 1747.93,318.029 1750,309.5C 1753.39,308.544 1756.89,308.211 1760.5,308.5C 1760.66,310.527 1760.5,312.527 1760,314.5C 1758.17,316.156 1756.84,318.156 1756,320.5C 1750.18,351.261 1751.85,381.595 1761,411.5C 1771.56,439.055 1790.89,457.388 1819,466.5C 1822.3,465.87 1825.13,464.37 1827.5,462C 1845.41,443.896 1847.41,446.396 1833.5,469.5C 1842.41,473.225 1851.74,475.392 1861.5,476C 1875.5,476.667 1889.5,476.667 1903.5,476C 1912.68,475.859 1921.68,474.526 1930.5,472C 1937.5,468.503 1944.16,464.503 1950.5,460C 1952.58,459.131 1954.75,458.631 1957,458.5C 1962.87,460.216 1968.37,459.382 1973.5,456C 1992.46,443.386 2009.96,428.886 2026,412.5C 2042.04,391.76 2052.7,368.427 2058,342.5C 2060.5,326.41 2062.33,310.243 2063.5,294C 2062.53,274.303 2058.03,255.469 2050,237.5C 2047.46,235.295 2045.29,232.795 2043.5,230C 2045.07,229.392 2046.4,228.558 2047.5,227.5 Z"/></g>
<g><path style="opacity:0.982" fill="#fefffe" d="M 2391.5,228.5 C 2395.91,227.618 2399.41,228.952 2402,232.5C 2432.38,279.026 2444.38,330.026 2438,385.5C 2435.22,416.284 2427.89,445.95 2416,474.5C 2408.34,506.113 2403.01,538.113 2400,570.5C 2399.86,606.361 2402.53,642.028 2408,677.5C 2408.35,684.951 2410.18,691.951 2413.5,698.5C 2414.48,698.023 2415.31,697.357 2416,696.5C 2418.33,676.191 2423.33,656.524 2431,637.5C 2432.51,635.043 2433.85,635.043 2435,637.5C 2432.78,653.799 2430.45,670.132 2428,686.5C 2426.57,711.99 2427.91,737.323 2432,762.5C 2439.99,808.138 2450.66,853.138 2464,897.5C 2465.01,908.902 2467.68,919.902 2472,930.5C 2482.33,950.5 2492.67,970.5 2503,990.5C 2504.54,994.773 2505.87,999.106 2507,1003.5C 2515.81,1045.07 2524.14,1086.73 2532,1128.5C 2534.77,1150.69 2533.77,1172.69 2529,1194.5C 2510.1,1274.17 2471.27,1342 2412.5,1398C 2401.25,1405.91 2390.59,1414.58 2380.5,1424C 2376.51,1424.34 2375.01,1422.51 2376,1418.5C 2387.27,1407.95 2396.6,1395.95 2404,1382.5C 2413.82,1363.19 2422.82,1343.52 2431,1323.5C 2438.92,1315.66 2444.26,1306.32 2447,1295.5C 2454.75,1256.68 2454.09,1218.02 2445,1179.5C 2448.7,1141.56 2435.87,1110.73 2406.5,1087C 2376.89,1064.13 2343.22,1052.13 2305.5,1051C 2270.82,1046.67 2238.15,1052.67 2207.5,1069C 2193.47,1077.35 2180.13,1086.68 2167.5,1097C 2153.43,1113.62 2142.26,1132.12 2134,1152.5C 2121.53,1178.61 2112.03,1205.78 2105.5,1234C 2106.64,1244.38 2108.81,1254.55 2112,1264.5C 2117.24,1279.31 2122.74,1293.97 2128.5,1308.5C 2123.97,1308.5 2120.47,1306.5 2118,1302.5C 2111.62,1293.58 2105.12,1284.74 2098.5,1276C 2097.06,1275.22 2095.72,1275.39 2094.5,1276.5C 2088.51,1302.12 2082.68,1327.79 2077,1353.5C 2073.43,1375.75 2070.59,1398.08 2068.5,1420.5C 2066.61,1420.7 2065.11,1420.04 2064,1418.5C 2061.74,1414.11 2060.4,1409.45 2060,1404.5C 2057.54,1376.35 2055.37,1348.18 2053.5,1320C 2053.76,1298.36 2055.59,1276.86 2059,1255.5C 2067.05,1213.28 2076.05,1171.28 2086,1129.5C 2086.8,1117.8 2086.47,1106.13 2085,1094.5C 2081.83,1079.16 2078.66,1063.82 2075.5,1048.5C 2075.22,1042.82 2076.72,1042.15 2080,1046.5C 2085.25,1055.34 2090.25,1064.34 2095,1073.5C 2096.97,1077.22 2098.63,1077.22 2100,1073.5C 2112.85,1012.4 2126.02,951.401 2139.5,890.5C 2139.33,890.167 2139.17,889.833 2139,889.5C 2126.11,899.112 2111.78,905.446 2096,908.5C 2092.87,908.087 2090.37,906.587 2088.5,904C 2096.34,900.701 2104.34,897.701 2112.5,895C 2126.52,887.986 2137.68,877.819 2146,864.5C 2154.22,831.71 2161.56,798.71 2168,765.5C 2177.6,701.043 2188.77,636.876 2201.5,573C 2200.91,561.718 2198.41,550.885 2194,540.5C 2181.9,518.061 2170.23,495.395 2159,472.5C 2154.39,457.116 2151.72,441.449 2151,425.5C 2151.33,425.167 2151.67,424.833 2152,424.5C 2157.43,432.348 2162.09,440.682 2166,449.5C 2175.9,464.063 2188.4,475.897 2203.5,485C 2211.73,488.274 2218.56,486.44 2224,479.5C 2231.71,467.263 2234.71,453.93 2233,439.5C 2232.43,432.768 2231.43,426.102 2230,419.5C 2225.64,402.744 2220.98,386.078 2216,369.5C 2214.62,362.226 2213.78,354.893 2213.5,347.5C 2216.32,347.081 2218.49,348.081 2220,350.5C 2227.53,377.423 2242.36,399.256 2264.5,416C 2270.26,419.216 2276.26,421.883 2282.5,424C 2290.78,426.216 2294.78,423.05 2294.5,414.5C 2292.07,386.544 2290.9,358.544 2291,330.5C 2292.07,328.717 2293.57,328.217 2295.5,329C 2298.5,362.323 2311.5,390.989 2334.5,415C 2344.33,423.055 2354.99,424.388 2366.5,419C 2376.89,410.061 2384.73,399.228 2390,386.5C 2411.81,334.613 2411.97,282.613 2390.5,230.5C 2390.86,229.817 2391.2,229.15 2391.5,228.5 Z M 2291.5,635.5 C 2299.08,635.239 2303.58,638.906 2305,646.5C 2309.81,673.54 2314.81,700.54 2320,727.5C 2329.41,754.72 2339.41,781.72 2350,808.5C 2363.98,847.596 2373.15,887.762 2377.5,929C 2377.98,942.604 2375.15,955.437 2369,967.5C 2364.6,973.685 2359.94,974.019 2355,968.5C 2355.13,959.505 2355.13,950.505 2355,941.5C 2354.25,939.668 2353.25,938.001 2352,936.5C 2349.25,941.666 2346.25,946.666 2343,951.5C 2338.28,956.266 2333.11,956.766 2327.5,953C 2315.45,947.827 2306.11,939.66 2299.5,928.5C 2297.21,926.033 2295.04,926.033 2293,928.5C 2292.83,930.333 2292.67,932.167 2292.5,934C 2293.6,941.885 2294.93,949.718 2296.5,957.5C 2291.64,957.492 2287.31,955.992 2283.5,953C 2277.24,946.745 2271.74,939.912 2267,932.5C 2265.27,936.363 2263.93,940.363 2263,944.5C 2259.81,949.554 2257.14,954.888 2255,960.5C 2254.57,965.846 2254.73,971.18 2255.5,976.5C 2239.22,979.346 2224.39,976.013 2211,966.5C 2210.13,964.419 2209.63,962.253 2209.5,960C 2210.94,920.346 2216.1,881.18 2225,842.5C 2230.41,818.108 2236.08,793.775 2242,769.5C 2245.4,756.97 2249.4,744.636 2254,732.5C 2260.86,718.768 2267.2,704.768 2273,690.5C 2278.11,674.374 2282.45,658.04 2286,641.5C 2287.36,638.977 2289.19,636.977 2291.5,635.5 Z"/></g>
<g><path style="opacity:0.979" fill="#fefffe" d="M 1685.5,257.5 C 1688.7,257.682 1690.54,259.348 1691,262.5C 1699.47,296.461 1701.47,330.794 1697,365.5C 1692.24,386.541 1686.24,407.208 1679,427.5C 1664.74,460.03 1648.4,491.363 1630,521.5C 1625.42,531.993 1623.08,542.993 1623,554.5C 1621.69,619.953 1615.53,684.953 1604.5,749.5C 1605.06,751.819 1605.56,754.153 1606,756.5C 1619.83,745.333 1633.67,734.167 1647.5,723C 1651.26,720.844 1655.26,720.177 1659.5,721C 1660.67,722.868 1660.51,724.702 1659,726.5C 1634.15,746.683 1614.48,771.016 1600,799.5C 1597.73,804.64 1596.06,809.973 1595,815.5C 1587.98,881.934 1575.31,947.267 1557,1011.5C 1544.64,1074.97 1531.64,1138.31 1518,1201.5C 1515.68,1215.42 1514.01,1229.42 1513,1243.5C 1511.85,1268.16 1510.85,1292.83 1510,1317.5C 1509.13,1341.61 1505.46,1365.27 1499,1388.5C 1495,1402.82 1490.84,1416.98 1486.5,1431C 1485.23,1431.31 1484.07,1431.81 1483,1432.5C 1482.67,1432.17 1482.33,1431.83 1482,1431.5C 1484.62,1389.74 1483.29,1348.07 1478,1306.5C 1474.69,1285.6 1469.36,1265.27 1462,1245.5C 1456.33,1253.83 1450.67,1262.17 1445,1270.5C 1440.17,1275.33 1435.33,1280.17 1430.5,1285C 1427.67,1287.17 1424.5,1288.67 1421,1289.5C 1416.31,1287.42 1415.31,1284.09 1418,1279.5C 1427.42,1269 1435.09,1257.33 1441,1244.5C 1443.67,1237.17 1446.33,1229.83 1449,1222.5C 1449.67,1218.83 1449.67,1215.17 1449,1211.5C 1444.29,1191.33 1438.96,1171.33 1433,1151.5C 1424.47,1130.91 1416.14,1110.25 1408,1089.5C 1401.4,1069.09 1395.73,1048.42 1391,1027.5C 1388.69,1022.69 1385.19,1019.03 1380.5,1016.5C 1378,1018.15 1376.5,1020.48 1376,1023.5C 1367.63,1065.31 1356.3,1106.31 1342,1146.5C 1332.97,1166.83 1322.3,1186.16 1310,1204.5C 1307.08,1210.19 1306.08,1216.19 1307,1222.5C 1310.59,1245.61 1317.59,1267.61 1328,1288.5C 1328.67,1290.17 1328.67,1291.83 1328,1293.5C 1323.98,1293.83 1320.65,1292.16 1318,1288.5C 1314.41,1282.32 1311.08,1275.99 1308,1269.5C 1305.91,1266.32 1303.57,1263.32 1301,1260.5C 1300.14,1263.27 1299.64,1266.1 1299.5,1269C 1301.17,1286.36 1304.01,1303.53 1308,1320.5C 1312.43,1333.88 1315.76,1347.55 1318,1361.5C 1324.73,1384.61 1333.39,1406.95 1344,1428.5C 1345.97,1431.97 1348.14,1435.3 1350.5,1438.5C 1348.26,1440.54 1345.76,1442.21 1343,1443.5C 1299.06,1388.93 1270.73,1326.93 1258,1257.5C 1257.74,1235.43 1256.41,1213.43 1254,1191.5C 1252.12,1180.96 1249.45,1170.63 1246,1160.5C 1238.27,1104.97 1222.27,1051.97 1198,1001.5C 1186.17,969.018 1177.84,935.685 1173,901.5C 1172.67,883.167 1172.33,864.833 1172,846.5C 1170.55,833.818 1166.88,821.818 1161,810.5C 1150.38,792.224 1140.22,773.724 1130.5,755C 1130.67,753.5 1131.5,752.667 1133,752.5C 1136.23,753.864 1139.39,755.364 1142.5,757C 1151.39,766.552 1160.22,776.052 1169,785.5C 1168.72,740.901 1163.39,696.901 1153,653.5C 1140.41,608.995 1120.41,568.328 1093,531.5C 1088.68,523.554 1085.35,515.221 1083,506.5C 1078.79,486.46 1074.46,466.46 1070,446.5C 1069.33,426.833 1069.33,407.167 1070,387.5C 1071.67,384.833 1073.33,384.833 1075,387.5C 1078.79,402.799 1082.46,418.132 1086,433.5C 1093.9,456.974 1104.24,479.307 1117,500.5C 1135.17,524.341 1152.17,549.008 1168,574.5C 1178.71,594.911 1188.04,615.911 1196,637.5C 1209.42,680.186 1221.75,723.186 1233,766.5C 1241.48,807.547 1248.14,848.88 1253,890.5C 1260.12,917.985 1266.45,945.652 1272,973.5C 1274.3,983.088 1277.96,992.088 1283,1000.5C 1288.15,1005.65 1293.15,1005.65 1298,1000.5C 1299.07,991.604 1299.24,982.604 1298.5,973.5C 1299.11,951.158 1299.94,928.825 1301,906.5C 1309.92,837.512 1318.75,768.512 1327.5,699.5C 1324.67,675.194 1319.17,651.528 1311,628.5C 1304.48,612.293 1294.65,598.46 1281.5,587C 1272.83,581.333 1264.17,575.667 1255.5,570C 1258.18,567.93 1261.18,567.264 1264.5,568C 1269.17,570 1273.83,572 1278.5,574C 1287.44,571.917 1295.44,573.75 1302.5,579.5C 1304.24,577.594 1305.24,575.26 1305.5,572.5C 1303.42,565.926 1301.75,559.259 1300.5,552.5C 1303.52,552.335 1306.52,552.502 1309.5,553C 1310.43,553.388 1311.09,554.055 1311.5,555C 1313.08,567.417 1317.25,578.917 1324,589.5C 1338.73,625.68 1351.06,662.68 1361,700.5C 1364.41,718.098 1367.41,735.764 1370,753.5C 1374.76,761.367 1379.43,761.367 1384,753.5C 1383.99,745.995 1383.49,738.495 1382.5,731C 1384.53,709.781 1387.03,688.615 1390,667.5C 1392.11,655.274 1395.11,643.274 1399,631.5C 1401.49,625.843 1404.49,620.51 1408,615.5C 1417.04,606.131 1425.7,596.465 1434,586.5C 1440.73,573.482 1445.56,559.816 1448.5,545.5C 1453.37,546.72 1455.37,549.886 1454.5,555C 1453.35,567.528 1452.02,580.028 1450.5,592.5C 1454.19,591.824 1457.52,590.324 1460.5,588C 1464.83,583 1469.17,578 1473.5,573C 1477.26,572.041 1479.59,573.375 1480.5,577C 1468.26,604.663 1458.1,633.163 1450,662.5C 1448.9,670.124 1448.24,677.791 1448,685.5C 1447.09,688.311 1446.26,691.144 1445.5,694C 1447.37,698.308 1448.54,702.808 1449,707.5C 1451.42,731.154 1453.75,754.821 1456,778.5C 1457.91,851.325 1459.41,924.158 1460.5,997C 1459.27,1012.04 1457.61,1027.04 1455.5,1042C 1455.45,1046.2 1456.79,1049.87 1459.5,1053C 1466.39,1054.46 1470.22,1051.62 1471,1044.5C 1479.92,1007.06 1489.26,969.728 1499,932.5C 1504.83,891.857 1510.5,851.19 1516,810.5C 1525.9,764.675 1534.9,718.675 1543,672.5C 1548.72,620.3 1551.39,567.967 1551,515.5C 1551.81,512.554 1553.14,509.888 1555,507.5C 1578.4,483.433 1601.07,458.767 1623,433.5C 1634.33,416.833 1645.67,400.167 1657,383.5C 1664.98,366.544 1671.98,349.211 1678,331.5C 1682.65,308.679 1684.15,285.679 1682.5,262.5C 1682.76,260.308 1683.76,258.641 1685.5,257.5 Z"/></g>
<g><path style="opacity:0.948" fill="#fefffe" d="M 1343.5,1691.5 C 1365.43,1690.06 1385.1,1695.9 1402.5,1709C 1412.05,1719.88 1412.88,1731.38 1405,1743.5C 1399.91,1750.36 1393.41,1752.2 1385.5,1749C 1367.52,1730.02 1346.52,1715.35 1322.5,1705C 1319.88,1701.87 1319.88,1698.7 1322.5,1695.5C 1329.54,1693.75 1336.54,1692.42 1343.5,1691.5 Z"/></g>
<g><path style="opacity:0.966" fill="#fefffe" d="M 1133.5,1715.5 C 1155.08,1715.54 1176.08,1719.04 1196.5,1726C 1220.78,1735.74 1231.95,1753.58 1230,1779.5C 1223.01,1800.57 1208.85,1808.41 1187.5,1803C 1183.08,1800.59 1179.25,1797.42 1176,1793.5C 1155.31,1763.4 1127.48,1742.9 1092.5,1732C 1088.56,1726.82 1089.9,1723.15 1096.5,1721C 1109,1719.29 1121.33,1717.45 1133.5,1715.5 Z"/></g>
<g><path style="opacity:0.948" fill="#fefffe" d="M 2265.5,1717.5 C 2283.53,1716.4 2300.2,1720.57 2315.5,1730C 2326.72,1739.64 2329.22,1751.14 2323,1764.5C 2319.61,1769.56 2314.95,1772.56 2309,1773.5C 2307.11,1773.2 2305.28,1772.7 2303.5,1772C 2283.98,1755.24 2261.98,1742.57 2237.5,1734C 2233.5,1730.33 2233.5,1726.67 2237.5,1723C 2246.98,1721.26 2256.31,1719.42 2265.5,1717.5 Z"/></g>
<g><path style="opacity:0.949" fill="#fefffe" d="M 1290.5,1723.5 C 1312.21,1723.09 1332.21,1728.59 1350.5,1740C 1366.56,1753.13 1370.4,1768.97 1362,1787.5C 1355.58,1795.69 1347.75,1797.52 1338.5,1793C 1330.46,1781.08 1322.29,1769.25 1314,1757.5C 1305.32,1748.15 1295.99,1739.49 1286,1731.5C 1285.68,1727.82 1287.18,1725.15 1290.5,1723.5 Z"/></g>
<g><path style="opacity:0.969" fill="#fefffe" d="M 2382.5,1732.5 C 2417.11,1730.2 2450.78,1734.7 2483.5,1746C 2502.81,1752.98 2516.65,1765.81 2525,1784.5C 2531.71,1804.18 2527.54,1821.01 2512.5,1835C 2500.29,1842.6 2488.29,1842.27 2476.5,1834C 2461.04,1812.2 2443.71,1791.86 2424.5,1773C 2410.97,1760.98 2396.14,1750.81 2380,1742.5C 2377.71,1738.32 2378.55,1734.98 2382.5,1732.5 Z"/></g>
<g><path style="opacity:0.95" fill="#fefffe" d="M 2219.5,1753.5 C 2237.03,1754.88 2253.7,1759.38 2269.5,1767C 2282.81,1776.93 2288.31,1790.1 2286,1806.5C 2282.06,1817.14 2274.56,1821.98 2263.5,1821C 2262.17,1820.33 2260.83,1819.67 2259.5,1819C 2249.29,1805.11 2237.95,1792.11 2225.5,1780C 2219.01,1774.92 2212.34,1770.09 2205.5,1765.5C 2202.5,1761.33 2203.17,1757.83 2207.5,1755C 2211.69,1754.82 2215.69,1754.32 2219.5,1753.5 Z"/></g>
<g><path style="opacity:0.969" fill="#fefffe" d="M 2726.5,1775.5 C 2733.03,1775.24 2735.2,1778.24 2733,1784.5C 2688.25,1859.59 2629.42,1921.42 2556.5,1970C 2523.66,1988.92 2490.66,2007.59 2457.5,2026C 2449.47,2030.6 2441.47,2030.6 2433.5,2026C 2415.15,2012.99 2400.32,1996.82 2389,1977.5C 2379.08,1959.43 2381.91,1943.59 2397.5,1930C 2399.36,1928.7 2401.36,1928.37 2403.5,1929C 2408.83,1933.67 2414.17,1938.33 2419.5,1943C 2429.35,1948.14 2439.68,1949.47 2450.5,1947C 2501.26,1931.31 2549.26,1909.64 2594.5,1882C 2643.37,1852.64 2687.37,1817.14 2726.5,1775.5 Z"/></g>
<g><path style="opacity:0.965" fill="#fefffe" d="M 2003.5,1792.5 C 2032.76,1795.7 2054.6,1810.04 2069,1835.5C 2070.9,1841.91 2069.9,1847.91 2066,1853.5C 2051.67,1872.5 2037.33,1891.5 2023,1910.5C 2002.27,1933.76 1978.77,1953.59 1952.5,1970C 1933.17,1981.67 1913.83,1993.33 1894.5,2005C 1890.29,2007.65 1885.96,2007.98 1881.5,2006C 1880.42,2004.27 1880.26,2002.44 1881,2000.5C 1925.26,1962.33 1959.59,1916.66 1984,1863.5C 1990.68,1848.46 1994.34,1832.79 1995,1816.5C 1993.09,1812.59 1990.43,1809.26 1987,1806.5C 1984.49,1801.34 1985.99,1797.84 1991.5,1796C 1995.62,1794.81 1999.62,1793.64 2003.5,1792.5 Z"/></g>
<g><path style="opacity:0.969" fill="#fefffe" d="M 2132.5,1793.5 C 2172.82,1804.49 2209.48,1822.66 2242.5,1848C 2257.08,1859.25 2269.58,1872.41 2280,1887.5C 2289.48,1902.79 2294.65,1919.45 2295.5,1937.5C 2294.2,1962.47 2281.2,1976.47 2256.5,1979.5C 2245.36,1979.85 2237.2,1975.19 2232,1965.5C 2221.72,1933.98 2208.72,1903.65 2193,1874.5C 2176.4,1846.89 2155.73,1822.55 2131,1801.5C 2129.3,1798.53 2129.8,1795.86 2132.5,1793.5 Z"/></g>
<g><path style="opacity:0.969" fill="#fefffe" d="M 1392.5,1797.5 C 1398,1796.83 1400.17,1799.16 1399,1804.5C 1345.02,1894.15 1272.85,1965.31 1182.5,2018C 1161.1,2029.03 1139.77,2040.03 1118.5,2051C 1110.63,2052.5 1103.29,2051.17 1096.5,2047C 1069.56,2029.63 1055.72,2004.8 1055,1972.5C 1055.65,1967.38 1057.15,1962.54 1059.5,1958C 1066.34,1954.81 1070.51,1956.98 1072,1964.5C 1076.75,1970.31 1082.92,1973.48 1090.5,1974C 1097.83,1974.67 1105.17,1974.67 1112.5,1974C 1158.96,1959.77 1202.96,1940.1 1244.5,1915C 1285.02,1890.81 1323.02,1863.15 1358.5,1832C 1369.4,1819.93 1380.73,1808.43 1392.5,1797.5 Z"/></g>
<g><path style="opacity:0.966" fill="#fefffe" d="M 1059.5,1810.5 C 1082.9,1810.12 1105.57,1813.96 1127.5,1822C 1152.77,1831.57 1164.6,1849.74 1163,1876.5C 1156.85,1895.15 1144.02,1903.65 1124.5,1902C 1118.42,1899.87 1113.25,1896.37 1109,1891.5C 1096.7,1868.53 1079.53,1850.03 1057.5,1836C 1049.25,1831.63 1041.09,1827.13 1033,1822.5C 1031.82,1818.74 1032.99,1815.91 1036.5,1814C 1044.3,1812.74 1051.96,1811.57 1059.5,1810.5 Z"/></g>
<g><path style="opacity:0.968" fill="#fefffe" d="M 1722.5,1814.5 C 1725.19,1814.34 1727.85,1814.5 1730.5,1815C 1745.67,1824.08 1760.67,1833.42 1775.5,1843C 1781.54,1846.84 1783.04,1852.01 1780,1858.5C 1768.51,1869.27 1762.18,1882.6 1761,1898.5C 1758.54,1913.08 1756.88,1927.74 1756,1942.5C 1754.54,1968.85 1753.21,1995.18 1752,2021.5C 1743.29,2037.77 1729.79,2044.27 1711.5,2041C 1705.69,2035.71 1702.69,2029.04 1702.5,2021C 1702.09,2020.05 1701.43,2019.39 1700.5,2019C 1680.82,2018.32 1661.15,2018.65 1641.5,2020C 1617.52,2022.14 1593.69,2025.31 1570,2029.5C 1560.7,2029.85 1553.03,2026.51 1547,2019.5C 1537.5,2007.83 1532,1994.49 1530.5,1979.5C 1532.42,1978.36 1534.42,1978.19 1536.5,1979C 1546.89,1984.18 1557.89,1986.68 1569.5,1986.5C 1612.83,1984.85 1656.16,1983.35 1699.5,1982C 1703.13,1981.37 1704.96,1979.2 1705,1975.5C 1706.1,1963.85 1706.44,1952.18 1706,1940.5C 1705.5,1939.33 1704.67,1938.5 1703.5,1938C 1660.01,1936.34 1617.01,1940.18 1574.5,1949.5C 1570.03,1949.18 1566.03,1947.68 1562.5,1945C 1548.35,1933.87 1540.68,1919.37 1539.5,1901.5C 1546.22,1903.02 1552.88,1904.85 1559.5,1907C 1608.21,1907.04 1656.88,1905.71 1705.5,1903C 1706.7,1902.1 1707.53,1900.93 1708,1899.5C 1709.99,1888.9 1710.99,1878.23 1711,1867.5C 1708.44,1865.31 1705.44,1864.31 1702,1864.5C 1673.83,1865.57 1645.67,1866.73 1617.5,1868C 1601.39,1869.06 1585.39,1871.06 1569.5,1874C 1555.17,1877.08 1544.01,1872.58 1536,1860.5C 1530.42,1852.5 1526.92,1843.67 1525.5,1834C 1525.8,1832.11 1526.3,1830.28 1527,1828.5C 1527.89,1827.92 1528.89,1827.59 1530,1827.5C 1535.64,1830.06 1541.47,1832.23 1547.5,1834C 1594.52,1834.88 1641.52,1834.21 1688.5,1832C 1696.27,1831.51 1703.6,1829.51 1710.5,1826C 1714.4,1821.94 1718.4,1818.1 1722.5,1814.5 Z"/></g>
</svg>
